<svg width="50" height="50" viewBox="0 0 50 50" fill="none" xmlns="http://www.w3.org/2000/svg">
<path d="M17.2185 0.830209C17.6121 0.830209 17.9473 1.10984 18.0192 1.49694L18.3797 3.41738C18.4728 3.91555 18.8673 4.28747 19.3654 4.39037C19.8293 4.48673 20.2865 4.60711 20.7308 4.75085C21.2126 4.90765 21.7375 4.78377 22.0674 4.39994L23.3339 2.91973C23.5904 2.62083 24.023 2.54983 24.3643 2.74746L25.3086 3.29297C25.6483 3.48897 25.8029 3.90156 25.6723 4.27233L25.0247 6.11302C24.8564 6.58995 25.011 7.10838 25.3883 7.44648C25.7395 7.76172 26.0716 8.09382 26.3868 8.44499C26.7249 8.82229 27.2434 8.98008 27.7203 8.81185L29.5642 8.16107C29.935 8.0304 30.3444 8.18337 30.5404 8.52474L31.0891 9.4722C31.2851 9.81193 31.2109 10.2462 30.9136 10.5026L30.7541 10.6398C28.8219 10.6724 27.1688 12.0546 26.8111 13.9607L26.7122 14.4807L26.3709 14.0787C25.6212 13.2065 24.5716 12.7322 23.487 12.6751C22.0236 10.4619 19.52 8.99688 16.6698 8.99688C12.1602 8.99688 8.50313 12.6539 8.50313 17.1635C8.50313 20.0137 9.96815 22.5174 12.1813 23.9776C12.2385 25.0621 12.7128 26.1134 13.585 26.8615L13.9869 27.2028L13.4669 27.3017C11.5608 27.6594 10.1787 29.3124 10.146 31.2447L10.0089 31.4042C9.75242 31.7031 9.31982 31.7773 8.97845 31.5796L8.03099 31.0309C7.69126 30.8349 7.53665 30.4255 7.66732 30.0548L8.3181 28.2109C8.48633 27.7339 8.32854 27.2155 7.95124 26.8774C7.60007 26.5622 7.26797 26.2301 6.95274 25.8789C6.61464 25.5016 6.0962 25.347 5.61927 25.5152L3.77858 26.1628C3.40782 26.2935 2.99522 26.1405 2.79922 25.7992L2.25372 24.8517C2.05772 24.512 2.12871 24.0809 2.42598 23.8245L3.90619 22.5548C4.29002 22.2249 4.4139 21.7 4.2571 21.2182C4.11337 20.7739 3.99298 20.3199 3.89661 19.856C3.79371 19.3595 3.4218 18.965 2.92364 18.8702L1.00319 18.5066C0.616093 18.4396 0.33646 18.1059 0.33646 17.7122V16.6148C0.33646 16.2212 0.616093 15.886 1.00319 15.8141L2.92364 15.4536C3.4218 15.3605 3.79371 14.9661 3.89661 14.4679C3.99298 14.004 4.11337 13.5468 4.2571 13.1025C4.4139 12.6207 4.29002 12.0958 3.90619 11.7659L2.42598 10.4994C2.12708 10.243 2.05608 9.81038 2.25372 9.46901L2.79922 8.52474C2.99522 8.18501 3.40782 8.0304 3.77858 8.16107L5.61927 8.80866C6.0962 8.97689 6.61464 8.82229 6.95274 8.44499C7.26797 8.09382 7.60007 7.76172 7.95124 7.44648C8.32854 7.10838 8.48633 6.58995 8.3181 6.11302L7.66732 4.26914C7.53665 3.89837 7.68962 3.48897 8.03099 3.29297L8.97845 2.74427C9.31818 2.54827 9.75242 2.62246 10.0089 2.91973L11.2753 4.39994C11.6053 4.78377 12.1301 4.90765 12.612 4.75085C13.0562 4.60711 13.5135 4.48673 13.9773 4.39037C14.4739 4.28747 14.8684 3.91236 14.9631 3.41419L15.3236 1.49375C15.3922 1.10828 15.7275 0.830209 16.1211 0.830209H17.2185ZM31.9185 13.8969C32.3121 13.8969 32.6473 14.175 32.7192 14.5604L33.0223 16.1746C33.148 16.8459 33.6829 17.3406 34.3525 17.4762C34.9095 17.5889 35.4566 17.7321 35.9891 17.9068C36.6359 18.1192 37.3456 17.9604 37.7883 17.4443L38.8506 16.2033C39.107 15.9061 39.5413 15.8351 39.881 16.0311L40.8253 16.5766C41.1666 16.7726 41.3196 17.1852 41.1889 17.5559L40.6402 19.1095C40.4148 19.753 40.6299 20.4451 41.1379 20.8992C41.5577 21.2748 41.957 21.6725 42.331 22.0923C42.7851 22.6002 43.4771 22.8153 44.1206 22.5899L45.6774 22.0444C46.0482 21.9137 46.4576 22.0683 46.6536 22.4081L47.2023 23.3523C47.3999 23.6937 47.3257 24.1263 47.0268 24.3827L45.7859 25.4451C45.2697 25.8877 45.111 26.5975 45.3233 27.2443C45.4981 27.7767 45.6413 28.3238 45.754 28.8808C45.8895 29.5505 46.3842 30.0853 47.0555 30.2111L48.6697 30.5141C49.0568 30.586 49.3365 30.9212 49.3365 31.3148V32.4122C49.3365 32.8059 49.0584 33.1411 48.6729 33.213L47.0587 33.516C46.3874 33.6418 45.8927 34.1766 45.7572 34.8463C45.6445 35.4049 45.5013 35.9503 45.3265 36.4828C45.1142 37.1296 45.2729 37.8394 45.7891 38.282L47.03 39.3443C47.3273 39.6008 47.3983 40.035 47.2023 40.3747L46.6568 41.319C46.4608 41.6604 46.0482 41.8133 45.6774 41.6827L44.1238 41.134C43.4803 40.9086 42.7882 41.1237 42.3342 41.6316C41.9585 42.0514 41.5608 42.4507 41.1411 42.8247C40.6331 43.2788 40.418 43.9709 40.6434 44.6144L41.1889 46.1712C41.3196 46.5419 41.165 46.9513 40.8253 47.1473L39.881 47.696C39.5396 47.8937 39.107 47.8195 38.8506 47.5206L37.7883 46.2796C37.3456 45.7635 36.6359 45.6047 35.9891 45.8171C35.4566 45.9918 34.9095 46.135 34.3525 46.2477C33.6829 46.3833 33.148 46.878 33.0223 47.5493L32.7192 49.1635C32.6473 49.5506 32.3121 49.8302 31.9185 49.8302H30.8211C30.4275 49.8302 30.0922 49.5505 30.0236 49.1667L29.7205 47.5525C29.5947 46.8812 29.0599 46.3865 28.3902 46.2509C27.8316 46.1382 27.2862 45.995 26.7537 45.8202C26.1069 45.6079 25.3971 45.7667 24.9545 46.2828L23.8922 47.5238C23.6358 47.821 23.2047 47.8952 22.865 47.6992L21.9175 47.1505C21.5761 46.9545 21.4232 46.5451 21.5538 46.1744L22.0993 44.6176C22.3247 43.974 22.1097 43.282 21.6017 42.8279C21.1819 42.4523 20.7826 42.0546 20.4086 41.6348C19.9545 41.1269 19.2608 40.9118 18.6189 41.1372L17.0622 41.6827C16.6914 41.8133 16.282 41.6587 16.086 41.319L15.5373 40.3747C15.3397 40.0334 15.4139 39.6008 15.7128 39.3443L16.9537 38.282C17.4698 37.8394 17.6286 37.1296 17.4163 36.4828C17.2415 35.9503 17.0983 35.4033 16.9856 34.8463C16.85 34.1766 16.3554 33.6418 15.6841 33.516L14.0699 33.213C13.6828 33.1411 13.4031 32.8059 13.4031 32.4122V31.3148C13.4031 30.9212 13.6828 30.5876 14.0667 30.5173L15.6809 30.2143C16.3522 30.0885 16.8469 29.5505 16.9824 28.8808C17.0951 28.3238 17.2383 27.7767 17.4131 27.2443C17.6254 26.5975 17.4667 25.8909 16.9505 25.4482L15.7096 24.3859C15.4123 24.1295 15.3381 23.6953 15.5341 23.3555L16.0828 22.4081C16.2788 22.0667 16.6882 21.9137 17.059 22.0444L18.6158 22.5931C19.2593 22.8185 19.9513 22.6034 20.4054 22.0954C20.7811 21.6757 21.1787 21.2764 21.5985 20.9023C22.1065 20.4483 22.3216 19.7562 22.0962 19.1127L21.5507 17.5559C21.42 17.1852 21.5746 16.7758 21.9143 16.5798L22.8586 16.0311C23.2 15.8334 23.6326 15.9076 23.889 16.2065L24.9513 17.4475C25.3939 17.9636 26.1037 18.1224 26.7505 17.91C27.283 17.7353 27.8301 17.5921 28.387 17.4794C29.0567 17.3438 29.5916 16.8491 29.7173 16.1778L30.0204 14.5636C30.0922 14.1765 30.4275 13.8969 30.8211 13.8969H31.9185ZM16.6698 15.5302C17.103 15.5302 17.5184 15.7023 17.8247 16.0086C18.131 16.3149 18.3031 16.7304 18.3031 17.1635C18.3031 17.5967 18.131 18.0122 17.8247 18.3185C17.5184 18.6248 17.103 18.7969 16.6698 18.7969C16.2366 18.7969 15.8212 18.6248 15.5149 18.3185C15.2085 18.0122 15.0365 17.5967 15.0365 17.1635C15.0365 16.7304 15.2085 16.3149 15.5149 16.0086C15.8212 15.7023 16.2366 15.5302 16.6698 15.5302ZM31.3698 22.0635C25.9569 22.0635 21.5698 26.4507 21.5698 31.8635C21.5698 37.2764 25.9569 41.6635 31.3698 41.6635C36.7827 41.6635 41.1698 37.2764 41.1698 31.8635C41.1698 26.4507 36.7827 22.0635 31.3698 22.0635ZM31.3698 28.5969C33.1746 28.5969 34.6365 30.0587 34.6365 31.8635C34.6365 33.6684 33.1746 35.1302 31.3698 35.1302C29.565 35.1302 28.1031 33.6684 28.1031 31.8635C28.1031 30.0587 29.565 28.5969 31.3698 28.5969Z" fill="white"/>
</svg>
