<svg width="100" height="100" viewBox="0 0 100 100" fill="none" xmlns="http://www.w3.org/2000/svg">
<path d="M34.4531 0C35.2565 0 35.9406 0.570677 36.0872 1.36068L36.8229 5.27995C37.0129 6.29661 37.818 7.05562 38.8346 7.26562C39.7813 7.46229 40.7144 7.70797 41.6211 8.0013C42.6044 8.3213 43.6756 8.06849 44.349 7.28516L46.9336 4.26432C47.4569 3.65432 48.3398 3.50943 49.0365 3.91276L50.9635 5.02604C51.6569 5.42604 51.9724 6.26807 51.7057 7.02474L50.3841 10.7812C50.0408 11.7546 50.3563 12.8126 51.1263 13.5026C51.843 14.1459 52.5207 14.8237 53.1641 15.5404C53.8541 16.3104 54.9121 16.6324 55.8854 16.2891L59.6484 14.9609C60.4051 14.6943 61.2406 15.0065 61.6406 15.7031L62.7604 17.6367C63.1604 18.3301 63.009 19.2162 62.4023 19.7396L62.0768 20.0195C58.1335 20.0862 54.7599 22.9069 54.0299 26.7969L53.8281 27.8581L53.1315 27.0378C51.6015 25.2578 49.4594 24.2898 47.2461 24.1732C44.2594 19.6565 39.15 16.6667 33.3333 16.6667C24.13 16.6667 16.6667 24.13 16.6667 33.3333C16.6667 39.15 19.6565 44.2596 24.1732 47.2396C24.2898 49.4529 25.2578 51.5983 27.0378 53.125L27.8581 53.8216L26.7969 54.0234C22.9069 54.7534 20.0862 58.127 20.0195 62.0703L19.7396 62.3958C19.2163 63.0058 18.3334 63.1572 17.6367 62.7539L15.7031 61.6341C15.0098 61.2341 14.6943 60.3986 14.9609 59.6419L16.2891 55.8789C16.6324 54.9056 16.3104 53.8475 15.5404 53.1576C14.8237 52.5142 14.1459 51.8365 13.5026 51.1198C12.8126 50.3498 11.7546 50.0343 10.7812 50.3776L7.02474 51.6992C6.26807 51.9659 5.42605 51.6537 5.02605 50.957L3.91277 49.0234C3.51276 48.3301 3.65766 47.4504 4.26433 46.9271L7.28516 44.3359C8.06849 43.6626 8.3213 42.5914 8.0013 41.6081C7.70797 40.7014 7.46229 39.7748 7.26562 38.8281C7.05563 37.8148 6.29662 37.0097 5.27995 36.8164L1.36068 36.0742C0.570679 35.9376 0 35.2565 0 34.4531V32.2135C0 31.4102 0.570679 30.7261 1.36068 30.5794L5.27995 29.8438C6.29662 29.6537 7.05563 28.8487 7.26562 27.832C7.46229 26.8854 7.70797 25.9522 8.0013 25.0456C8.3213 24.0622 8.06849 22.991 7.28516 22.3177L4.26433 19.7331C3.65433 19.2097 3.50943 18.3269 3.91277 17.6302L5.02605 15.7031C5.42605 15.0098 6.26807 14.6943 7.02474 14.9609L10.7812 16.2826C11.7546 16.6259 12.8126 16.3104 13.5026 15.5404C14.1459 14.8237 14.8237 14.1459 15.5404 13.5026C16.3104 12.8126 16.6324 11.7546 16.2891 10.7812L14.9609 7.01823C14.6943 6.26156 15.0065 5.42604 15.7031 5.02604L17.6367 3.90625C18.3301 3.50625 19.2163 3.65766 19.7396 4.26432L22.3242 7.28516C22.9976 8.06849 24.0688 8.3213 25.0521 8.0013C25.9588 7.70797 26.8919 7.46229 27.8385 7.26562C28.8519 7.05562 29.6569 6.2901 29.8503 5.27344L30.5859 1.35417C30.7259 0.5675 31.4102 0 32.2135 0H34.4531ZM64.4531 26.6667C65.2565 26.6667 65.9406 27.2342 66.0872 28.0208L66.7057 31.3151C66.9624 32.6851 68.0539 33.6947 69.4206 33.9714C70.5572 34.2014 71.6738 34.4936 72.7604 34.8503C74.0804 35.2836 75.529 34.9596 76.4323 33.9062L78.6003 31.3737C79.1236 30.767 80.0098 30.6221 80.7031 31.0221L82.6302 32.1354C83.3269 32.5354 83.6391 33.3774 83.3724 34.1341L82.2526 37.3047C81.7926 38.618 82.2316 40.0304 83.2682 40.957C84.1249 41.7237 84.9398 42.5353 85.7031 43.3919C86.6298 44.4286 88.0421 44.8675 89.3555 44.4076L92.5326 43.2943C93.2892 43.0276 94.1247 43.3431 94.5247 44.0365L95.6445 45.9635C96.0479 46.6602 95.8965 47.5431 95.2865 48.0664L92.7539 50.2344C91.7006 51.1377 91.3766 52.5863 91.8099 53.9062C92.1666 54.9929 92.4588 56.1094 92.6888 57.2461C92.9655 58.6128 93.9751 59.7043 95.3451 59.9609L98.6393 60.5794C99.4293 60.7261 100 61.4102 100 62.2135V64.4531C100 65.2565 99.4325 65.9406 98.6458 66.0872L95.3516 66.7057C93.9816 66.9624 92.972 68.0539 92.6953 69.4206C92.4653 70.5606 92.1731 71.6737 91.8164 72.7604C91.3831 74.0804 91.7071 75.529 92.7604 76.4323L95.293 78.6003C95.8996 79.1236 96.0445 80.0098 95.6445 80.7031L94.5312 82.6302C94.1312 83.3269 93.2892 83.6391 92.5326 83.3724L89.362 82.2526C88.0486 81.7926 86.6363 82.2316 85.7096 83.2682C84.943 84.1249 84.1314 84.9398 83.2747 85.7031C82.2381 86.6298 81.7991 88.0421 82.2591 89.3555L83.3724 92.5325C83.6391 93.2892 83.3235 94.1247 82.6302 94.5247L80.7031 95.6445C80.0065 96.0479 79.1236 95.8964 78.6003 95.2865L76.4323 92.7539C75.529 91.7006 74.0804 91.3766 72.7604 91.8099C71.6738 92.1666 70.5572 92.4588 69.4206 92.6888C68.0539 92.9655 66.9624 93.975 66.7057 95.345L66.0872 98.6393C65.9406 99.4293 65.2565 100 64.4531 100H62.2135C61.4102 100 60.7259 99.4292 60.5859 98.6458L59.9674 95.3516C59.7108 93.9816 58.6193 92.972 57.2526 92.6953C56.1126 92.4653 54.9994 92.1731 53.9128 91.8164C52.5928 91.3831 51.1442 91.7071 50.2409 92.7604L48.0729 95.293C47.5496 95.8996 46.6699 96.051 45.9766 95.651L44.043 94.5312C43.3463 94.1312 43.0341 93.2957 43.3008 92.5391L44.4141 89.362C44.8741 88.0486 44.4351 86.6363 43.3984 85.7096C42.5418 84.943 41.7269 84.1314 40.9635 83.2747C40.0369 82.2381 38.6212 81.7991 37.3112 82.2591L34.1341 83.3724C33.3774 83.6391 32.5419 83.3235 32.1419 82.6302L31.0221 80.7031C30.6188 80.0065 30.7702 79.1236 31.3802 78.6003L33.9128 76.4323C34.9661 75.529 35.2901 74.0804 34.8568 72.7604C34.5001 71.6737 34.2079 70.5572 33.9779 69.4206C33.7012 68.0539 32.6916 66.9624 31.3216 66.7057L28.0273 66.0872C27.2373 65.9406 26.6667 65.2565 26.6667 64.4531V62.2135C26.6667 61.4102 27.2375 60.7293 28.0208 60.5859L31.3151 59.9674C32.6851 59.7108 33.6947 58.6128 33.9714 57.2461C34.2014 56.1094 34.4936 54.9929 34.8503 53.9062C35.2836 52.5863 34.9596 51.1442 33.9062 50.2409L31.3737 48.0729C30.767 47.5496 30.6156 46.6634 31.0156 45.9701L32.1354 44.0365C32.5354 43.3398 33.3709 43.0276 34.1276 43.2943L37.3047 44.4141C38.618 44.8741 40.0304 44.4351 40.957 43.3984C41.7237 42.5418 42.5353 41.7269 43.3919 40.9635C44.4286 40.0369 44.8676 38.6245 44.4076 37.3112L43.2943 34.1341C43.0276 33.3774 43.3431 32.5419 44.0365 32.1419L45.9635 31.0221C46.6602 30.6188 47.5431 30.7702 48.0664 31.3802L50.2344 33.9128C51.1377 34.9661 52.5863 35.2901 53.9062 34.8568C54.9929 34.5001 56.1094 34.2079 57.2461 33.9779C58.6128 33.7012 59.7043 32.6916 59.9609 31.3216L60.5794 28.0273C60.7261 27.2373 61.4102 26.6667 62.2135 26.6667H64.4531ZM33.3333 30C34.2174 30 35.0652 30.3512 35.6904 30.9763C36.3155 31.6014 36.6667 32.4493 36.6667 33.3333C36.6667 34.2174 36.3155 35.0652 35.6904 35.6904C35.0652 36.3155 34.2174 36.6667 33.3333 36.6667C32.4493 36.6667 31.6014 36.3155 30.9763 35.6904C30.3512 35.0652 30 34.2174 30 33.3333C30 32.4493 30.3512 31.6014 30.9763 30.9763C31.6014 30.3512 32.4493 30 33.3333 30ZM63.3333 43.3333C52.2867 43.3333 43.3333 52.2867 43.3333 63.3333C43.3333 74.38 52.2867 83.3333 63.3333 83.3333C74.38 83.3333 83.3333 74.38 83.3333 63.3333C83.3333 52.2867 74.38 43.3333 63.3333 43.3333ZM63.3333 56.6667C67.0167 56.6667 70 59.65 70 63.3333C70 67.0167 67.0167 70 63.3333 70C59.65 70 56.6667 67.0167 56.6667 63.3333C56.6667 59.65 59.65 56.6667 63.3333 56.6667Z" fill="#FBAE3C"/>
</svg>
