<svg width="900" height="203" viewBox="0 0 900 203" fill="none" xmlns="http://www.w3.org/2000/svg">
<path d="M0 0L21.5 3.70001C43 7.30001 86 14.7 128.8 31C171.7 47.3 214.3 72.7 257.2 72.2C300 71.7 343 45.3 385.8 32.2C428.7 19 471.3 19 514.2 24.7C557 30.3 600 41.7 642.8 39.7C685.7 37.7 728.3 22.3 771.2 13.8C814 5.29999 857 3.69999 878.5 2.79999L900 2V204H878.5C857 204 814 204 771.2 204C728.3 204 685.7 204 642.8 204C600 204 557 204 514.2 204C471.3 204 428.7 204 385.8 204C343 204 300 204 257.2 204C214.3 204 171.7 204 128.8 204C86 204 43 204 21.5 204H0V0Z" fill="#0066FF"/>
</svg>
