<svg width="900" height="204" viewBox="0 0 900 204" fill="none" xmlns="http://www.w3.org/2000/svg">
<path d="M900 169L878.5 155.7C857 142.3 814 115.7 771.2 111.3C728.3 107 685.7 125 642.8 143.5C600 162 557 181 514.2 189.2C471.3 197.3 428.7 194.7 385.8 189.7C343 184.7 300 177.3 257.2 174.2C214.3 171 171.7 172 128.8 177.7C86 183.3 43 193.7 21.5 198.8L0 204V0H21.5C43 0 86 0 128.8 0C171.7 0 214.3 0 257.2 0C300 0 343 0 385.8 0C428.7 0 471.3 0 514.2 0C557 0 600 0 642.8 0C685.7 0 728.3 0 771.2 0C814 0 857 0 878.5 0H900V169Z" fill="#0066FF"/>
</svg>
