<svg xmlns="http://www.w3.org/2000/svg" version="1.1" xmlns:xlink="http://www.w3.org/1999/xlink" xmlns:svgjs="http://svgjs.dev/svgjs" viewBox="0 0 2400 800"><defs><linearGradient x1="50%" y1="0%" x2="50%" y2="100%" id="sssurf-grad"><stop stop-color="hsl(208, 77%, 50%)" stop-opacity="1" offset="0%"></stop><stop stop-color="hsl(208, 74%, 93%)" stop-opacity="1" offset="100%"></stop></linearGradient></defs><g fill="url(#sssurf-grad)" transform="matrix(1,0,0,1,0,-90.95663452148438)"><path d="M 0 306.19546668787825 Q 450 548.0084187887953 600 312.6933362562967 Q 1050 620.6943070334092 1200 301.9132881300669 Q 1650 534.9393591994769 1800 304.84648178934634 Q 2250 454.51365176678206 2400 333.1844054370444 L 2400 800 L 0 800 L 0 340.7544925196697 Z" transform="matrix(1,0,0,1,0,35)" opacity="0.05"></path><path d="M 0 306.19546668787825 Q 450 548.0084187887953 600 312.6933362562967 Q 1050 620.6943070334092 1200 301.9132881300669 Q 1650 534.9393591994769 1800 304.84648178934634 Q 2250 454.51365176678206 2400 333.1844054370444 L 2400 800 L 0 800 L 0 340.7544925196697 Z" transform="matrix(1,0,0,1,0,70)" opacity="0.21"></path><path d="M 0 306.19546668787825 Q 450 548.0084187887953 600 312.6933362562967 Q 1050 620.6943070334092 1200 301.9132881300669 Q 1650 534.9393591994769 1800 304.84648178934634 Q 2250 454.51365176678206 2400 333.1844054370444 L 2400 800 L 0 800 L 0 340.7544925196697 Z" transform="matrix(1,0,0,1,0,105)" opacity="0.37"></path><path d="M 0 306.19546668787825 Q 450 548.0084187887953 600 312.6933362562967 Q 1050 620.6943070334092 1200 301.9132881300669 Q 1650 534.9393591994769 1800 304.84648178934634 Q 2250 454.51365176678206 2400 333.1844054370444 L 2400 800 L 0 800 L 0 340.7544925196697 Z" transform="matrix(1,0,0,1,0,140)" opacity="0.53"></path><path d="M 0 306.19546668787825 Q 450 548.0084187887953 600 312.6933362562967 Q 1050 620.6943070334092 1200 301.9132881300669 Q 1650 534.9393591994769 1800 304.84648178934634 Q 2250 454.51365176678206 2400 333.1844054370444 L 2400 800 L 0 800 L 0 340.7544925196697 Z" transform="matrix(1,0,0,1,0,175)" opacity="0.68"></path><path d="M 0 306.19546668787825 Q 450 548.0084187887953 600 312.6933362562967 Q 1050 620.6943070334092 1200 301.9132881300669 Q 1650 534.9393591994769 1800 304.84648178934634 Q 2250 454.51365176678206 2400 333.1844054370444 L 2400 800 L 0 800 L 0 340.7544925196697 Z" transform="matrix(1,0,0,1,0,210)" opacity="0.84"></path><path d="M 0 306.19546668787825 Q 450 548.0084187887953 600 312.6933362562967 Q 1050 620.6943070334092 1200 301.9132881300669 Q 1650 534.9393591994769 1800 304.84648178934634 Q 2250 454.51365176678206 2400 333.1844054370444 L 2400 800 L 0 800 L 0 340.7544925196697 Z" transform="matrix(1,0,0,1,0,245)" opacity="1"></path></g></svg>